<svg xmlns="http://www.w3.org/2000/svg" viewBox="0 0 228.52 871.79"><title>flow</title><g id="Layer_2" data-name="Layer 2"><g id="Layer_1-2" data-name="Layer 1"><path d="M91.55,871.44a111.18,111.18,0,0,1,5.17-22.68c4-12.3,7.59-24.74,13.21-36.44,1.2-2.5,1.27-2.47,3.91-4.11,1.78,1.63.21,3-.42,4.34A261.41,261.41,0,0,0,94.82,869a23,23,0,0,0-.26,2.47Z"/><path d="M116.22,658.87c5.09-3.37,8.21-8.38,11.56-13.45l-13-23.26c-3.82,6.65-5,14.34-10.44,19.68-1.78-1.78-.68-3.06-.14-4.35,2.36-5.67,5.4-11,7.38-16.89.86-2.54,1.1-4.81,0-7.22-5-11.12-7.89-22.92-11.07-34.62a223.68,223.68,0,0,0-8-22.78c-7.27,4.65-14.19,9.23-22.2,11.76-14.57,4.61-28.21,3-40.94-5.67-6.39-4.36-9.46-10.55-10.37-18-.54-4.45-1.09-8.94-1.38-13.39C16.89,520.63,21.1,512.59,29.5,507,49,493.9,70.33,496.57,88.14,509.44c.39.28.86.47,1.89,1,6.28-15.89,5.84-32.24,4.17-48.5s-5.42-32.09-15.72-46.5c3.12.22,3.67,2.19,4.76,3.33s1.37,3,3.09,4.22c4.76-2.53,6.93-7.64,10.69-11.64,0,3,0,3-3.35,7.3-1.72,2.23-3.55,4.38-5.73,7a114.43,114.43,0,0,1,11.17,42.78C100,483.74,96.9,498.21,93.2,513c7.87,5.51,13.87,12.4,20.4,19.17,7.9-6.15,13.67-14.09,22-19.82a132.56,132.56,0,0,1-8.1-44.65c0-15.5,2.78-30.46,10.52-43.86-.66-4.94-5-7.47-6.82-12.21,4.52,1.66,5,6.4,8.48,8.11,2.76-.89,2.94-4.47,6-5.41.54,1.63-.7,2.47-1.33,3.4-9.46,13.91-12.48,29.55-12.07,46,.25,9.81.47,19.66,2.1,29.36.89,5.29,1.28,10.86,4.6,15.84,6.2-4.08,12.27-7.79,19-10.23,8.16-3,16.41-4.11,24.95-1.59,11.81,3.48,18.83,11.88,22.13,23.08a57.66,57.66,0,0,1,2.07,25.2c-1.95,12.22-10.42,19.31-21.26,23.79-14.34,5.94-27.39,1.6-39.94-5.61-3.15-1.81-6.14-3.89-9.7-6.16a159,159,0,0,0-6.78,18.42c-3.49,10.76-6.49,21.67-10.52,32.25-.71,1.86-2,3-3.9,4.4a184.68,184.68,0,0,0,22.47,40.78c3.73-1.47,6.26-3.93,9.1-5.85,8.63-5.82,17.6-9.43,28.16-5.74a10.33,10.33,0,0,0,5.94.07c6.46-1.64,12.12,0,17.45,3.77,2,1.38,3.89,3,6.42,3.77,1.35-2.38.69-4.44,0-6.45-2.17-6.28-6.12-11.07-12.23-13.79-16.56-7.39-39.77-6.58-54.1,8.79-1.41,1.51-2.6,3.38-5.25,4.6.84-4.44,3.83-6.77,6.29-9.06,13.1-12.21,28.35-18,46.19-13.11,11.67,3.22,19.37,11.19,22.9,22.89,1,3.26.54,6.59-.46,10.13,1.79,3.15,3.73,6.42,5.29,9.89a22.17,22.17,0,0,1-8.35,27.57c-18.87,11.84-38.26,12.06-57.79,2-6.08-3.12-10.85-8.21-15.24-13.51-1-1.23-1.63-2.94-4.2-3.48a115.13,115.13,0,0,0-4.28,35.18c.39,12,2.74,23.56,6.49,35.77-4.06-1.48-4.4-4.35-5.07-6.68a128,128,0,0,1-4.4-20.43A101,101,0,0,1,123.09,680c.94-3.34,3.22-6.29,2.89-10,2.44-1.74,3-4.72,4.56-7,1.24-1.8,2.25-3.88,5.08-4a66.93,66.93,0,0,0-6.33,12.57,8.68,8.68,0,0,0,.7,1.56,29.31,29.31,0,0,0,1.91,2.3c6.29,6.92,12.59,13.62,22.42,15.72a74.83,74.83,0,0,0,40.78-2.35c7.64-2.64,13.49-7.26,14.09-16.25a31.69,31.69,0,0,0-1-8.88c-2.44-11.14-9.79-17.37-20.55-19.92-1.77-.42-3.83-1-5.75.33.74,2.84,2.8,4.73,3.67,7.27a10,10,0,0,1,0,7.28A9.13,9.13,0,0,1,180,664c-5.79,2.09-13.12-.9-14.62-6-1.41-4.75,1.59-10.39,6.61-11.5-3.34,3.73-4.59,7.64-3.07,12,4.3,3,7.91,2.9,10.93-.05,2.66-2.61,2.57-5.84-.27-9.94A13.57,13.57,0,0,0,169,642.7c-11.63-.81-20.66,4.47-28.86,12.85,8.75,9.66,19,14.64,31.71,15.05s22.78-4.86,32.58-13.53c-.2,1.85-.09,2.45-.33,2.78-4.95,6.7-11,12-19.1,14.52a42.3,42.3,0,0,1-47.64-16.21c-2.27-3.21-4.32-6.62-7.49-9.59-4.19,3.66-7.28,7.89-10.41,11.82,1.3,4.28,5.82,5.7,6.65,9.69-2.36.28-3.54-1.35-4.87-2.87-1.18-1.35-2.56-2.52-4-3.92-3.58,2.36-5.74,6.22-9.92,8-.15-2.18,1.3-3.27,2.51-4.47,2.46-2.44,5.24-4.63,6.49-8Zm87.56-120.74c-.28,4.34-2.88,7.07-6,9.11-9.84,6.4-20.18,6.68-30.92,2.2a62.35,62.35,0,0,1-20.35-14.1c-3.89,6.35-7.58,12.3-9.3,19.53,12.56,8.26,25.91,12,40.48,10.21,9.08-1.13,17.31-4.52,23.4-12,9.38-11.45,4.37-29.08-9.7-33.25a46.58,46.58,0,0,0-9.87-1.29c-12.8-.91-24,2.43-32.62,13.11,6.77,8.42,16.24,11.52,26.18,13.87C185.88,548.12,195.46,546.19,203.78,538.13Zm-89.51,70.94c6.32-18.13,12.92-35.91,19.63-54.37-16.14-10.59-25.54-28.16-41.7-39.66a158.85,158.85,0,0,1-7.53,16.06,3.44,3.44,0,0,0,.18,3.38,130,130,0,0,1,8.32,16.68c6.81-4.51,11.6-11,18.6-14.79-4.29,7-11.33,11.46-16.95,18C102.11,572.19,108.24,590.5,114.27,609.07ZM80.45,533.81C72.26,523,60.91,520.63,48.8,520.22s-21.6,4.4-27.9,15.79a7.3,7.3,0,0,0,3.23,6.2c4.42,3,9.36,5.47,14.56,6.2,12.62,1.77,24.4-1.27,35.15-8.11A21.44,21.44,0,0,0,80.45,533.81Zm-57,11.52c-.59,2.19.15,3.74,1.07,5.35,3.74,6.57,9.77,10,16.81,11.4,14.57,2.86,28.81,1.57,42.32-4.94,2.61-1.26,5.48-2.33,7.35-5a57.11,57.11,0,0,0-8.72-16.33C65.16,555.24,45.7,558.85,23.43,545.33Zm66-32a11.54,11.54,0,0,0-1.32-1.43C76.88,504,64.32,502,51,504c-10.9,1.67-20.11,6.58-26.9,15.52-2.88,3.79-3.77,7.11-2.71,10.87,6.22-12.19,16.78-15.68,29.39-16.07C63.91,513.9,73.55,520,82,529.81,85.9,524.35,87.35,518.62,89.43,513.33ZM146.88,530c7.45-9.15,15.92-15.55,27.44-17.44,12.32-2,21.3,3.55,29.72,13.12a15.76,15.76,0,0,0-1.67-6.85c-4-7.36-10-12.54-18-14.84-16.28-4.69-30.59,1.09-44.74,8.78C140.65,519.4,143.54,524.62,146.88,530ZM134.6,552.52a209.4,209.4,0,0,1,9.86-19.93,181.33,181.33,0,0,1-8.1-17.27c-7.24,6-14.11,11.87-20.45,18.84C121.12,541.47,127.26,547.08,134.6,552.52Z"/><path d="M68.44,753.84c-2.51-10.28-20.6-14.85-30.51-4.75-1.08,1.1-1.62,3.06-4.14,2.77.07-4.3,4.7-5.12,6.35-8.57a14.27,14.27,0,0,0-10.88-.86c-10.12,3-21.3,12.45-21.06,27.07.28,17.15,7.8,27.81,24.27,32.67,15.1,4.45,29.87,3.88,44.34-2.38,7-3,12.73-7.79,18.14-13,1.72-1.67,3.09-3.95,5.77-4.26,1.08,1.25.24,2-.42,2.7-9.21,10.3-19.58,19.27-32.92,23.5-14.29,4.54-29,6.78-43.55.92C9.69,803.89,1.35,793,.11,777.8c-1.22-15,7.84-28.91,21.67-35.16,2.11-1,4.28-1.79,6.52-2.72a34.16,34.16,0,0,1,19.5-18.87c11.23-4.41,21.64-2.85,31.06,4.33,7.7,5.87,14,13.24,20.14,20.68,4.84,5.84,8.76,12.5,15.29,17.81,3.12-3.37,6.27-6.69,9.34-10.08,10.89-12,22.39-23.32,37.21-30.46,7.29-3.51,15.11-5.28,23.24-3.48a24.22,24.22,0,0,1,17.51,14.23c.62,1.35.62,3,2,4.5a50,50,0,0,1,15.75,8c2,4.58,5.45,8.66,7.27,13.78,5.44,15.36-1.28,33.49-16,40.16-19.51,8.85-39.19,8.91-58.84-.12a66.45,66.45,0,0,1-17.68-12c-1-1-2.4-1.79-2.64-3.36,1.6-1.64,2.59-.34,3.41.55,9.62,10.41,21.81,15.72,35.62,17.09,16.74,1.66,31.71-3.75,42.82-16,13-14.37,8.54-33.75-2.29-42.46-3-2.38-6.55-3.14-9.89-4.14-1.61-1.08-2.19-2.79-2.81-4.22-3-6.91-9-9.21-15.64-9.73-12.07-.93-23,3-33,9.41-6.43,4.11-12.82,8.34-18,14.37,1.22,4.93,4.2,8.67,6.71,12.91,6-3.47,10.19-9.39,17.28-10.24-4.81,3.51-9.57,7-13.71,11.33a4.48,4.48,0,0,0,.26,4.66c11,17.57,33.12,22.6,48.47,16.57,3.33-1.31,6-3.52,9.21-5.35,3.76-6.91,6.3-14,2.46-21.81-1.55-.09-1.79.84-2.08,1.54C196.89,768,190.24,773,181.94,776c-5.46,2-11,1.11-16.11-1-6.62-2.7-10.13-13.05-7.82-20.7,3.89-12.83,17.59-17.51,26.2-16.42a13.52,13.52,0,0,1,6.86,2.75c1.54,1.22,2.92,2.74,4.89,2.68,1,1.77,2,3.12,1.3,5.13-2.28.63-3.12-1.27-4.23-2.54-5.78-6.65-15.64-8.23-24,.87,2.87,1.71,6.11,1.26,8.71,2,2.28-.14,3.29-2.3,5.38-2.17,1.3,1.91-1.87,2.58-1.38,3.87.41,3.43,3.31,5.35,3.17,8.69-.18,4.32-1.17,6.53-4.51,7.3-2.82.65-5.34,0-7-2.52-1.84-2.82-1.19-5.18,2.48-8.85,1,3.06-1,6.38,1.3,9a2.83,2.83,0,0,0,4.21-1c1.26-1.84,1-3.75.16-5.69-2.74-6.29-8.28-8.57-16.73-6.57-3.69,6-3.42,12.47-1.09,18.92,1.53,4.24,7.26,5.84,13.06,4.23A30.57,30.57,0,0,0,192,764c4.1-4.81,7.81-10,8.45-16.62.08-.83.29-1.64,1.46-1.82a.48.48,0,0,1,.64.46c-.16,5.06,1.86,9.4,3.54,14.1,4.92,13.7.83,22.18-11.06,28.83-13.51,7.56-26.5,3.83-39-2.87-8.57-4.61-14.66-11.89-19.32-20.38-2.32-4.22-4.75-8.37-7.29-12.83-2.83.54-3.86,3.34-5.79,5-5.77,4.86-10.31,10.86-15.06,16.66-3,3.72-3,4.82-.37,8.82,2,3.05,4,6.1,5,9.7a12.1,12.1,0,0,0,3.31,5.36l8.54-16.95c-1.33-5.3-6.77-7.47-9-13.19,6,1.43,7.36,6.82,11.13,9.53,2.13-1.28,3-3.53,4.59-5.18,1.37-1.44,2-4,5.44-3.59-2,6.44-7.37,10.32-10.23,15.72q-4.44,8.37-8.88,16.78c1.59,6.22,4.07,12,6.44,17.83a225.06,225.06,0,0,1,12.33,39.49c.43,2.11.91,4.22,1.4,6.32.45,1.89,1,3.76-1.23,6.67-5.36-18-8.6-35.66-15.72-52.07-7-16.22-13.3-32.8-24.26-48,3.6,1,3.6,1,6.55,4.05,4-2.11,5.34-6.4,7.85-8.95l-8-8.57c-1.67.7-1.71,2.39-2.35,3.68-7.67,15.34-19.15,26.59-36.06,30.64-12.23,2.93-29,.31-36.63-11.87-3.67-5.83-4.83-11.85-2.41-18,1.75-4.48,2.76-8.78,2.24-13.53-.13-1.2-.36-2.69,1.17-3.54,1.66.32,1.28,1.68,1.3,2.71a28.12,28.12,0,0,0,8.47,19.63c8.39,8.66,23.23,8.89,32.48.28a17.18,17.18,0,0,0-3-14ZM32.2,739.48c5.37.07,10.33,2.72,15.92,1.43,4-.93,8.11-1.79,12.29-.44,9.4,3,17,15.74,15.21,25.55a9.78,9.78,0,0,1-2.37,4.85c-7.1,8-21.4,10.34-30.78,5.21-6.11-3.34-10-8.47-12.65-15.22a10.52,10.52,0,0,0-2,8.47A21.93,21.93,0,0,0,45.68,787.3C61.45,789.93,75.31,786.1,87,775c2.26-2.14,4.84-4,5.83-7.41-4.21-4.56-10.76-5.92-14.45-11,6.43,1.26,11.1,5.64,16.52,8.94,3.07-3.3,4.6-7.29,6.47-11.61-8-9.2-15.45-18.79-26.39-24.8-14-7.66-27.16-5.35-39.38,4.35C33.91,734.85,32.34,736.33,32.2,739.48Z"/><path d="M116.28,658.79c-4.27-.18-6.62-3.32-9.13-6.09-1.43-1.57-2.25-3.69-4.55-4.88-3.65,3.81-5.88,8.77-9.71,12.44C81,671.69,67.35,679.67,50.23,678.67a32,32,0,0,1-22.4-10.76,9.7,9.7,0,0,1-2.76-7.35c13.84,14.55,29.82,16.51,46.94,10,12.41-4.69,21.25-13.84,28-25.39-6.45-8.77-14.62-14.63-24.62-17.42a54.06,54.06,0,0,0-28.16-.64c-9.55,2.44-17.51,7.27-21.82,16.64-1.14,2.47-2.59,5.13-.47,8.22,7.17-5,14.45-9.33,23.42-9.15-1.61,1.58-3.73,1.94-5.73,2.56-8.85,2.74-15.6,8-19.89,16.32-4.87,9.39-3.3,17.3,4.89,23.94,10.76,8.72,22.88,11.44,36.5,8.65,11.47-2.35,22-6.33,31-14.08,6.58-5.7,6.94-7.35,2.86-14.84-.75-1.39-2.18-2.57-1.63-4.73,2.42-.55,3,1.47,3.81,2.9a101.12,101.12,0,0,1,12.45,43.28c.63,12.7-.36,25.3-4.75,37.4-.73,2-.88,4.5-3.62,5.6.87-7.95,3.85-15.47,4.41-23.39a149.33,149.33,0,0,0,.16-24.95c-.79-8.12-3.14-15.84-6.37-25-2.33,2.68-3.8,4.64-5.53,6.33a65.92,65.92,0,0,1-38.8,18.75c-13.17,1.69-25.1-1.81-35.6-9.89-10.07-7.76-9.91-22-3.77-31.61,1.67-2.62,2.89-5.11,2.74-8.3C20.93,641,26,632.8,34.62,627c15.52-10.47,31.77-10.41,48.23-2.17a20.62,20.62,0,0,1,5.31,3.69c8.95,8.94,17.88,17.9,26.22,27.42a21,21,0,0,1,1.84,2.94Z"/><path d="M80.52,313.54c1.88-4.39,4.34-7.12,5.65-10.52,4.56-11.86,5.71-24.27,5.87-36.77a128.32,128.32,0,0,0-5.16-36.41c-2.21-7.88-5.51-15.34-11.17-21.49a10.74,10.74,0,0,1-1.08-1.81c10.78-14.63,15.17-31.67,18.6-49,1.82-9.23,1.37-18.6.4-27.87a287.41,287.41,0,0,0-4.76-32.47c-1.5-6.78.19-13.28,2.48-19.55C100,54,104,29.78,101.83,4.64a17.74,17.74,0,0,1,.2-3.46c0-.24.44-.43,1.26-1.17,1.75,4.23,1.8,8.42,2.12,12.56C107,33,103,52.66,95.83,71.7c-4.74,12.64-4.65,25.13-1.47,38.17,7.79,32,3.44,62.4-13.43,90.81-2.11,3.56-2.35,6.66-.25,10.24,12.78,21.79,16.4,45.51,14,70.27-1,10.32-3.86,20.25-10,28.94a19.76,19.76,0,0,1-1.87,2.33A10.91,10.91,0,0,1,80.52,313.54Z"/><path d="M125.34.83c.66,3.33.14,6.6-.13,9.77C124,24,126.34,37.08,128.83,50.21c2.67,14.07,7.82,27.52,9.67,41.78A51.58,51.58,0,0,1,137,111.25c-4.78,19.44-6.67,39-3.3,58.93,2.24,13.21,6.51,25.46,15.92,35.44a20.48,20.48,0,0,1,1.88,3c-7.18,9.91-15.8,19.07-18.53,31.84-2.69,12.57-2.87,25-1.65,37.73s5.21,24.3,13.71,34.65c-2.66.33-3.57-1.45-4.58-2.65a53,53,0,0,1-10.73-22.86,104.78,104.78,0,0,1-2.86-25.23c.47-17,5.08-32.44,16.21-45.6.11-.13.2-.27.3-.4,6.24-8.1,5.28-7.56.36-14.51-10.63-15.05-14.91-32.1-15.61-50.29a88.22,88.22,0,0,1,4-30c5.63-17.84,3.86-35.07-1.78-52.44-3.6-11.07-7-22.29-8.09-33.95-1-10.42-1.73-20.92,1-31.25a12.26,12.26,0,0,1,.88-2.28C124.28,1.14,124.72,1.09,125.34.83Z"/><path d="M68.08,394.66c-9.29-8.83-20-8.21-30.95-4.87-16.7,5.09-21.23,24.2-8.3,36.41,11.3,10.67,24.9,11.41,39.17,8,4.87-1.16,9.58-2.83,13.36-6.38.71-.67,1.57-1.32,2.69-.49.75,1.89-.86,2.67-1.91,3.54-13.46,11.14-34,15.59-50.49,4.38C16.22,424.8,12.42,407.68,24,392.56c5.13-6.73,12.87-9.47,21.13-9.64C54.65,382.72,62.95,385.78,68.08,394.66Z"/><path d="M45.31,93.1c2-.33,3.07.55,4.28.93,5.87,1.88,10.08.1,11.73-5.74A21.71,21.71,0,0,0,61.13,75c-1.87-5.26-5.27-8.72-11.13-9.38-7.5-.84-13.76,1.58-17.58,8-5.7,9.57-3.71,19.29,1.26,28.51,4.49,8.34,11.81,12.69,21.23,12.4,14.34-.44,22.41-9.34,23.93-24.31.18-1.81.24-3.64.42-5.46,0-.22.47-.4,1-.83,1.79,1.13,1.57,3.2,1.54,4.73-.29,14.4-7.33,26-22.26,29.19-13.35,2.84-28.28-4-33-18.52C23.2,89.16,24.25,80,30.79,71.63a21.16,21.16,0,0,1,31.7-2.13c6,5.83,5.29,19.67-1.23,24.9C57,97.8,50.9,97.43,45.31,93.1Z"/><path d="M142.42,425.62c2.69-.61,3.46,1,4.55,1.83,16.43,12.95,39.28,8.11,50.88-7.44A19.91,19.91,0,0,0,200,399.13c-3.17-6.78-9.49-9.46-16.73-10-10.22-.76-18.74,3.15-26.5,10.2-.6-2.51,1.11-3.39,2-4.46,9.74-11.55,25.38-14.84,38.81-3.55,7.79,6.55,10.17,20,5.17,30.25-7.2,14.71-24.61,21.66-40.67,16.18A47.6,47.6,0,0,1,142.42,425.62Z"/><path d="M62.39,314.24c1.45-3.19,4.07-3.72,7.06-3.55,8.5.48,13.48,6,17.3,12.65,7.82,13.71,10,28.71,9.69,44.28a67.22,67.22,0,0,1-16.7,43.81,30,30,0,0,1-18.18,10.5c-6.39,1.09-11.44-1.46-14.36-7.14.51-6.51,1.68-8.08,7.67-10.08,7.17-2.4,13.77-1.22,19.81,3.27.8.59,1.57,1.22,2.37,1.81.11.08.32,0,.5,0,21-19.85,17.73-79.33,1.23-93.29-3.7,1.35-7.63,2.85-11.81,1.42A7.51,7.51,0,0,1,62.39,314.24Zm12.84,97.62c-5.13-6-17.49-7.63-23.42-3.34-3.22,2.32-3.25,7.06.11,8.68C57.49,419.88,71.09,418.94,75.23,411.86Zm1.22-96.75c-4.82-3.69-8-3.86-10.82-.83C68.57,317.54,70.54,317.74,76.45,315.11Z"/><path d="M80.89,326.69c-6,6.41-11.91,11-20.07,12-16,1.94-34.9-9.37-36.45-27.18-1.68-19.35,16.78-34.59,34.37-28.92,7.8,2.51,15.6,9.9,15,19.78-1.51-.26-1.46-1.59-1.85-2.65-4.9-13.52-17.6-18.05-30.48-13a16.25,16.25,0,0,0-9.06,9.56c-6.53,16.9,1.53,35.49,20.29,38.8,7.87,1.39,15.13-1,21.66-5.55C76,328.4,77.48,326.69,80.89,326.69Z"/><path d="M180.79,93.33c-2.31,4.17-6.25,4.27-10.18,3.45-4.68-1-8.17-3.58-9.4-8.57-2.55-10.31,6.18-21.15,16.9-21.13,8.1,0,14.09,3.56,18,10.46,5.52,9.67,5.94,19.55.56,29.48-3.26,6-8.68,9.29-15,10.57-10.23,2-19.55,0-26.95-8-6.77-7.27-7.8-15.87-5.67-25.15.09-.41.56-.73,1.17-1.48,1.36,2.08.42,4,.36,5.77-.27,8.26,1.57,15.49,7.83,21.71,8.75,8.7,29.55,7.13,35.61-9a28.74,28.74,0,0,0-1.36-24.18,15.21,15.21,0,0,0-17.77-7.74c-6.53,1.84-11,8.63-10.33,15.86.39,4.5,3.51,8.76,7.25,9.91C174.24,96,175.19,95.78,180.79,93.33Z"/><path d="M70.7,221a.94.94,0,0,1-.43,1.23c-9.35,6.91-28,11-40-.66s-13.11-32.21,3.28-43c7.29-4.81,15.52-4.94,23.35-1.38,8,3.63,11.35,10.69,11.94,19.2,0,.09-.21.2-.38.36-2.1-1.21-1.49-3.54-2.06-5.32-4.73-14.71-19.64-18-30.51-10.8-6.44,4.24-8.9,11.06-8.85,18.59.08,11.75,4.9,22.19,15.51,25.38A33.32,33.32,0,0,0,68.16,222c.72-.38,1.42-.82,2.14-1.2C70.38,220.73,70.57,220.9,70.7,221Z"/><path d="M151.45,332.19c4.16.79,8,2.51,12.14,3.63,15.88,4.35,29.51-7.62,32.41-22.46,1.49-7.66-.37-14.53-4.27-21-3.79-6.26-12.47-9.13-19.78-6.84a27.14,27.14,0,0,0-15,11.77c-.86,1.34-1.21,3.12-3,3.62a1.55,1.55,0,0,1-.53-1.92c3.73-8.32,14.68-18.28,26.56-16.71,7.55,1,18.27,9.05,20.35,19.5,3.3,16.57-4,33.16-22.54,36.7C168.4,340.31,159.46,337.57,151.45,332.19Z"/><path d="M179.52,409c2.44,3.09,1.26,5.79-1.07,8.19-3.63,3.74-8.18,4.86-13.25,4.31-9.44-1-16.17-6.48-22-13.4-10-11.9-13.54-26.13-14.19-41.2-.48-11.14-.53-22.37,3.79-33,3.3-8.09,7.45-15.59,15.73-19.89,4-2.07,8-2,12.13-1.27a3.8,3.8,0,0,1,3.29,2.69c-3,5.11-5.73,5.34-16.16,1.24-3.5,1.19-5.23,4.37-7.28,7.12-4.92,6.6-7,14.36-7.8,22.34-1.69,16.73-.43,33.21,5.72,49.06a49,49,0,0,0,6.14,11.94c1.28,1.71,2.49,3.77,5.23,2.55-.22,2.25,1,3.73,2.66,5a21.63,21.63,0,0,0,16.31,4.16C176.27,417.92,178.22,416.08,179.52,409ZM162,315.81c-3.47-3.16-7.38-3.18-11.25-.35C154.61,318.28,157.72,318.44,162,315.81Z"/><path d="M162.62,198.74a16,16,0,0,1,3.12-13.3c5-6.3,11.52-9.15,19.77-7.86,8.6,1.35,13.39,6.85,16.4,14.34,2.23,5.56,2.23,11.37,1,17.19-1.54,7.44-6.29,12.5-12.74,15.78-10.11,5.14-25.46,2.91-33.5-5.08,3.21.11,5.54,1.48,8,2.58,10,4.54,21.54,2.7,28.19-4.46,8.34-9,7.79-26.61-.7-34.13-7.7-6.82-25-5.14-27.69,9.78C164.14,195.33,164.38,197.24,162.62,198.74Z"/><path d="M63.71,658.43c-2.51,4.19-8.95,5.88-12.71,3.35a8.85,8.85,0,0,1-1.54-13.15c6.67-8,19.59-10.11,30.24-4.9,4.57,2.24,8.88,4.9,11.85,9.5-2.66,1.2-3.79-.66-5.17-1.65a34.45,34.45,0,0,0-24.53-6.31A13.3,13.3,0,0,0,54.47,648a7.41,7.41,0,0,0-1.69,9.84c2.11,3,4.56,3.35,8.75,1.21C62.21,658.72,62.76,657.9,63.71,658.43Z"/><path d="M68.77,754.24c-.39,1.7-1.62,2-3.07,1.7s-3-.51-4.47.54c-1.5,2-.7,4.7-1.3,7.09a8.09,8.09,0,0,1-3.8,5.55,5.91,5.91,0,0,1-7.38-.68c-2.13-1.93-2.2-4.4-.88-6.84,1.07-2,2-4.19,5.17-4.56-.48,3.7-6.55,6.79-1.16,10.62,6.14-2.83,6.2-6.69.35-20.76,4.29.31,4.5,4.54,7.45,6.8l8.76.15Z"/><path d="M179.48,408.91c-8.78-7-17.84-5.54-27-.89,3.17-4.82,12.32-7.64,19.19-5.62C175.09,403.4,178.8,404.43,179.48,408.91Z"/></g></g></svg>